{
  "source": "C:\\Users\\Peter\\Desktop\\stuff\\MIUN\\quantitative_research\\video_compression\\videos\\BVI-HD\\BVI-HD_CDVL_videos\\ORIG\\ParkPlay_1920x1080_50fps.mp4",
  "output": "C:\\Users\\Peter\\Desktop\\stuff\\MIUN\\quantitative_research\\video_compression\\compressed_videos\\BVI-HD\\av1\\2.5\\ParkPlay_1920x1080_50fps_av1.mkv",
  "codec": "av1",
  "ok": "Input #0, mov,mp4,m4a,3gp,3g2,mj2, from 'C:\\Users\\Peter\\Desktop\\stuff\\MIUN\\quantitative_research\\video_compression\\videos\\BVI-HD\\BVI-HD_CDVL_videos\\ORIG\\ParkPlay_1920x1080_50fps.mp4':\n  Metadata:\n    major_brand     : isom\n    minor_version   : 512\n    compatible_brands: isomiso2avc1mp41\n    encoder         : Lavf54.28.101\n  Duration: 00:00:05.00, start: 0.000000, bitrate: 620563 kb/s\n  Stream #0:0[0x1](und): Video: h264 (High 4:4:4 Predictive) (avc1 / 0x31637661), yuv420p(progressive), 1920x1080, 620558 kb/s, 50 fps, 50 tbr, 50 tbn (default)\n    Metadata:\n      handler_name    : VideoHandler\n      vendor_id       : [0][0][0][0]\n[out#0/matroska @ 000001cc1834f0c0] Codec AVOption b:a (set bitrate (in bits/s)) has not been used for any stream. The most likely reason is either wrong type (e.g. a video option with no video streams) or that it is a private option of some decoder which was not actually used for any stream.\nStream mapping:\n  Stream #0:0 -> #0:0 (h264 (native) -> av1 (libsvtav1))\nPress [q] to stop, [?] for help\nSvt[info]: -------------------------------------------\nSvt[info]: SVT [version]:\tSVT-AV1 Encoder Lib v3.1.0-19-g6ecfe8ec\nSvt[info]: SVT [build]  :\tGCC 15.2.0\t 64 bit\nSvt[info]: LIB Build date: Aug 17 2025 11:37:13\nSvt[info]: -------------------------------------------\nSvt[info]: Level of Parallelism: 5\nSvt[info]: Number of PPCS 93\nSvt[info]: [asm level on system : up to avx2]\nSvt[info]: [asm level selected : up to avx2]\nSvt[info]: -------------------------------------------\nSvt[info]: SVT [config]: main profile\ttier (auto)\tlevel (auto)\nSvt[info]: SVT [config]: width / height / fps numerator / fps denominator \t\t: 1920 / 1080 / 50 / 1\nSvt[info]: SVT [config]: bit-depth / color format \t\t\t\t\t: 8 / YUV420\nSvt[info]: SVT [config]: preset / tune / pred struct \t\t\t\t\t: 4 / PSNR / random access\nSvt[info]: SVT [config]: gop size / mini-gop size / key-frame type \t\t\t: 321 / 16 / key frame\nSvt[info]: SVT [config]: BRC mode / target bitrate (kbps)\t\t\t\t: VBR / 2500 \nSvt[info]: SVT [config]: AQ mode / Variance Boost \t\t\t\t\t: 2 / 0\nSvt[info]: SVT [config]: sharpness / luminance-based QP bias \t\t\t\t: 0 / 0\nSvt[info]: SVT [config]: QP scale compress strength \t\t\t\t\t: 0\nSvt[info]: -------------------------------------------\nOutput #0, matroska, to 'C:\\Users\\Peter\\Desktop\\stuff\\MIUN\\quantitative_research\\video_compression\\compressed_videos\\BVI-HD\\av1\\2.5\\ParkPlay_1920x1080_50fps_av1.mkv':\n  Metadata:\n    major_brand     : isom\n    minor_version   : 512\n    compatible_brands: isomiso2avc1mp41\n    encoder         : Lavf62.3.100\n  Stream #0:0(und): Video: av1 (AV01 / 0x31305641), yuv420p(tv, progressive), 1920x1080, q=2-31, 2500 kb/s, 50 fps, 1k tbn (default)\n    Metadata:\n      encoder         : Lavc62.11.100 libsvtav1\n      handler_name    : VideoHandler\n      vendor_id       : [0][0][0][0]\n    Side data:\n      cpb: bitrate max/min/avg: 0/0/2500000 buffer size: 2500000 vbv_delay: N/A\nframe=    0 fps=0.0 q=0.0 size=       0KiB time=N/A bitrate=N/A speed=N/A elapsed=0:00:01.08    \nframe=    0 fps=0.0 q=0.0 size=       0KiB time=N/A bitrate=N/A speed=N/A elapsed=0:00:01.60    \nframe=    0 fps=0.0 q=0.0 size=       0KiB time=N/A bitrate=N/A speed=N/A elapsed=0:00:02.12    \nframe=    0 fps=0.0 q=0.0 size=       0KiB time=N/A bitrate=N/A speed=N/A elapsed=0:00:02.72    \nframe=    0 fps=0.0 q=0.0 size=       0KiB time=N/A bitrate=N/A speed=N/A elapsed=0:00:03.33    \nframe=    0 fps=0.0 q=0.0 size=       0KiB time=N/A bitrate=N/A speed=N/A elapsed=0:00:03.98    \nframe=    0 fps=0.0 q=0.0 size=       0KiB time=N/A bitrate=N/A speed=N/A elapsed=0:00:04.59    \nframe=    0 fps=0.0 q=0.0 size=       0KiB time=N/A bitrate=N/A speed=N/A elapsed=0:00:05.16    \nframe=    1 fps=0.2 q=32.0 size=       1KiB time=00:00:00.00 bitrate=N/A speed=   0x elapsed=0:00:05.68    \nframe=    1 fps=0.2 q=32.0 size=       1KiB time=00:00:00.00 bitrate=N/A speed=   0x elapsed=0:00:06.26    \nframe=    1 fps=0.1 q=32.0 size=       1KiB time=00:00:00.00 bitrate=N/A speed=   0x elapsed=0:00:06.78    \nframe=    1 fps=0.1 q=32.0 size=       1KiB time=00:00:00.00 bitrate=N/A speed=   0x elapsed=0:00:07.32    \nframe=    2 fps=0.3 q=53.0 size=       1KiB time=00:00:00.02 bitrate= 285.2kbits/s speed=0.00254x elapsed=0:00:07.86    \nframe=    4 fps=0.5 q=53.0 size=       1KiB time=00:00:00.06 bitrate=  95.1kbits/s speed=0.00715x elapsed=0:00:08.39    \nframe=    7 fps=0.8 q=49.0 size=       1KiB time=00:00:00.12 bitrate=  47.5kbits/s speed=0.0135x elapsed=0:00:08.91    \nframe=    8 fps=0.8 q=50.0 size=       1KiB time=00:00:00.14 bitrate=  40.7kbits/s speed=0.0148x elapsed=0:00:09.46    \nframe=   11 fps=1.1 q=49.0 size=       1KiB time=00:00:00.18 bitrate=  31.7kbits/s speed=0.018x elapsed=0:00:10.02    \nframe=   13 fps=1.2 q=46.0 size=       1KiB time=00:00:00.22 bitrate=  25.9kbits/s speed=0.0207x elapsed=0:00:10.61    \nframe=   16 fps=1.4 q=51.0 size=       1KiB time=00:00:00.30 bitrate=  19.0kbits/s speed=0.0268x elapsed=0:00:11.18    \nframe=   18 fps=1.5 q=52.0 size=       1KiB time=00:00:00.34 bitrate=  16.8kbits/s speed=0.0289x elapsed=0:00:11.75    \nframe=   20 fps=1.6 q=47.0 size=       1KiB time=00:00:00.38 bitrate=  15.0kbits/s speed=0.031x elapsed=0:00:12.27    \nframe=   22 fps=1.7 q=50.0 size=       1KiB time=00:00:00.42 bitrate=  13.6kbits/s speed=0.0328x elapsed=0:00:12.79    \nframe=   23 fps=1.7 q=47.0 size=       1KiB time=00:00:00.44 bitrate=  13.0kbits/s speed=0.033x elapsed=0:00:13.31    \nframe=   27 fps=1.9 q=50.0 size=       1KiB time=00:00:00.52 bitrate=  11.0kbits/s speed=0.0375x elapsed=0:00:13.88    \nframe=   29 fps=2.0 q=46.0 size=       1KiB time=00:00:00.56 bitrate=  10.2kbits/s speed=0.0388x elapsed=0:00:14.44    \nframe=   32 fps=2.1 q=52.0 size=       1KiB time=00:00:00.62 bitrate=   9.2kbits/s speed=0.0413x elapsed=0:00:15.00    \nframe=   35 fps=2.3 q=52.0 size=       1KiB time=00:00:00.68 bitrate=   8.4kbits/s speed=0.0438x elapsed=0:00:15.52    \nframe=   38 fps=2.4 q=50.0 size=       1KiB time=00:00:00.72 bitrate=   7.9kbits/s speed=0.0448x elapsed=0:00:16.07    \nframe=   39 fps=2.3 q=47.0 size=       1KiB time=00:00:00.76 bitrate=   7.5kbits/s speed=0.0457x elapsed=0:00:16.63    \nframe=   40 fps=2.3 q=50.0 size=       1KiB time=00:00:00.78 bitrate=   7.3kbits/s speed=0.0453x elapsed=0:00:17.23    \nframe=   43 fps=2.4 q=50.0 size=       1KiB time=00:00:00.84 bitrate=   6.8kbits/s speed=0.0472x elapsed=0:00:17.78    \nframe=   45 fps=2.5 q=46.0 size=       1KiB time=00:00:00.88 bitrate=   6.5kbits/s speed=0.048x elapsed=0:00:18.33    \nframe=   48 fps=2.5 q=53.0 size=       1KiB time=00:00:00.94 bitrate=   6.1kbits/s speed=0.0497x elapsed=0:00:18.91    \nframe=   51 fps=2.6 q=51.0 size=       1KiB time=00:00:01.00 bitrate=   5.7kbits/s speed=0.0514x elapsed=0:00:19.44    \nframe=   52 fps=2.6 q=53.0 size=       1KiB time=00:00:01.02 bitrate=   5.6kbits/s speed=0.0511x elapsed=0:00:19.96    \nframe=   54 fps=2.6 q=53.0 size=       1KiB time=00:00:01.06 bitrate=   5.4kbits/s speed=0.0517x elapsed=0:00:20.50    \nframe=   55 fps=2.6 q=48.0 size=       1KiB time=00:00:01.08 bitrate=   5.3kbits/s speed=0.0514x elapsed=0:00:21.02    \nframe=   58 fps=2.7 q=53.0 size=       1KiB time=00:00:01.14 bitrate=   5.0kbits/s speed=0.0527x elapsed=0:00:21.63    \nframe=   61 fps=2.7 q=47.0 size=       1KiB time=00:00:01.18 bitrate=   4.8kbits/s speed=0.0532x elapsed=0:00:22.19    \nframe=   64 fps=2.8 q=55.0 size=       1KiB time=00:00:01.26 bitrate=   4.5kbits/s speed=0.0552x elapsed=0:00:22.82    \nframe=   68 fps=2.9 q=55.0 size=       1KiB time=00:00:01.32 bitrate=   4.3kbits/s speed=0.0565x elapsed=0:00:23.38    \nframe=   70 fps=2.9 q=55.0 size=       1KiB time=00:00:01.38 bitrate=   4.1kbits/s speed=0.0576x elapsed=0:00:23.96    \nframe=   72 fps=2.9 q=55.0 size=       1KiB time=00:00:01.42 bitrate=   4.0kbits/s speed=0.0579x elapsed=0:00:24.53    \nframe=   76 fps=3.0 q=55.0 size=       1KiB time=00:00:01.50 bitrate=   3.8kbits/s speed=0.0597x elapsed=0:00:25.11    \nframe=   79 fps=3.1 q=52.0 size=       1KiB time=00:00:01.56 bitrate=   3.7kbits/s speed=0.0607x elapsed=0:00:25.69    \nframe=   82 fps=3.1 q=56.0 size=       1KiB time=00:00:01.62 bitrate=   3.5kbits/s speed=0.0617x elapsed=0:00:26.27    \nframe=   86 fps=3.2 q=56.0 size=       1KiB time=00:00:01.70 bitrate=   3.4kbits/s speed=0.0633x elapsed=0:00:26.86    \nframe=   88 fps=3.2 q=56.0 size=       1KiB time=00:00:01.72 bitrate=   3.3kbits/s speed=0.0628x elapsed=0:00:27.40    \nframe=   92 fps=3.3 q=56.0 size=       1KiB time=00:00:01.82 bitrate=   3.1kbits/s speed=0.065x elapsed=0:00:28.02    \nframe=   95 fps=3.3 q=53.0 size=       1KiB time=00:00:01.88 bitrate=   3.0kbits/s speed=0.0657x elapsed=0:00:28.62    \nframe=   99 fps=3.4 q=55.0 size=       1KiB time=00:00:01.94 bitrate=   2.9kbits/s speed=0.0665x elapsed=0:00:29.17    \nframe=  103 fps=3.5 q=55.0 size=       1KiB time=00:00:02.04 bitrate=   2.8kbits/s speed=0.0686x elapsed=0:00:29.74    \nframe=  107 fps=3.5 q=55.0 size=       1KiB time=00:00:02.12 bitrate=   2.7kbits/s speed=0.07x elapsed=0:00:30.29    \nframe=  111 fps=3.6 q=55.0 size=       1KiB time=00:00:02.18 bitrate=   2.6kbits/s speed=0.0706x elapsed=0:00:30.85    \nframe=  114 fps=3.6 q=56.0 size=       1KiB time=00:00:02.24 bitrate=   2.5kbits/s speed=0.0713x elapsed=0:00:31.40    \nframe=  117 fps=3.7 q=53.0 size=       1KiB time=00:00:02.32 bitrate=   2.5kbits/s speed=0.0726x elapsed=0:00:31.95    \nframe=  119 fps=3.7 q=55.0 size=       1KiB time=00:00:02.36 bitrate=   2.4kbits/s speed=0.0727x elapsed=0:00:32.47    \nframe=  124 fps=3.8 q=56.0 size=       1KiB time=00:00:02.46 bitrate=   2.3kbits/s speed=0.0745x elapsed=0:00:33.01    \nframe=  128 fps=3.8 q=56.0 size=       1KiB time=00:00:02.52 bitrate=   2.3kbits/s speed=0.0751x elapsed=0:00:33.57    \nframe=  132 fps=3.9 q=56.0 size=       1KiB time=00:00:02.60 bitrate=   2.2kbits/s speed=0.0762x elapsed=0:00:34.11    \nframe=  135 fps=3.9 q=55.0 size=       1KiB time=00:00:02.68 bitrate=   2.1kbits/s speed=0.0773x elapsed=0:00:34.68    \nframe=  139 fps=3.9 q=55.0 size=       1KiB time=00:00:02.76 bitrate=   2.1kbits/s speed=0.0784x elapsed=0:00:35.21    \nframe=  143 fps=4.0 q=54.0 size=       1KiB time=00:00:02.84 bitrate=   2.0kbits/s speed=0.0794x elapsed=0:00:35.75    \nframe=  147 fps=4.0 q=56.0 size=       1KiB time=00:00:02.92 bitrate=   2.0kbits/s speed=0.0804x elapsed=0:00:36.33    \nframe=  151 fps=4.1 q=56.0 size=       1KiB time=00:00:03.00 bitrate=   1.9kbits/s speed=0.0814x elapsed=0:00:36.87    \nframe=  159 fps=4.2 q=56.0 size=       1KiB time=00:00:03.12 bitrate=   1.8kbits/s speed=0.0832x elapsed=0:00:37.51    \nframe=  163 fps=4.3 q=55.0 size=       1KiB time=00:00:03.20 bitrate=   1.8kbits/s speed=0.084x elapsed=0:00:38.08    \nframe=  169 fps=4.4 q=50.0 size=       1KiB time=00:00:03.36 bitrate=   1.7kbits/s speed=0.087x elapsed=0:00:38.63    \nframe=  173 fps=4.4 q=53.0 size=       1KiB time=00:00:03.44 bitrate=   1.7kbits/s speed=0.0877x elapsed=0:00:39.22    \nframe=  177 fps=4.5 q=41.0 size=       1KiB time=00:00:03.52 bitrate=   1.6kbits/s speed=0.0885x elapsed=0:00:39.77    \nframe=  179 fps=4.4 q=54.0 size=       1KiB time=00:00:03.56 bitrate=   1.6kbits/s speed=0.0883x elapsed=0:00:40.30    \nframe=  183 fps=4.5 q=54.0 size=       1KiB time=00:00:03.64 bitrate=   1.6kbits/s speed=0.0891x elapsed=0:00:40.86    \nframe=  185 fps=4.5 q=49.0 size=       1KiB time=00:00:03.68 bitrate=   1.6kbits/s speed=0.0888x elapsed=0:00:41.43    \nframe=  189 fps=4.5 q=52.0 size=       1KiB time=00:00:03.76 bitrate=   1.5kbits/s speed=0.0896x elapsed=0:00:41.97    \nframe=  195 fps=4.6 q=54.0 size=       1KiB time=00:00:03.84 bitrate=   1.5kbits/s speed=0.0902x elapsed=0:00:42.55    \nframe=  199 fps=4.6 q=54.0 size=       1KiB time=00:00:03.96 bitrate=   1.4kbits/s speed=0.0918x elapsed=0:00:43.12    \nframe=  201 fps=4.6 q=48.0 size=       1KiB time=00:00:04.00 bitrate=   1.4kbits/s speed=0.0916x elapsed=0:00:43.66    \nframe=  205 fps=4.6 q=52.0 size=       1KiB time=00:00:04.08 bitrate=   1.4kbits/s speed=0.0923x elapsed=0:00:44.21    \nframe=  211 fps=4.7 q=53.0 size=       1KiB time=00:00:04.20 bitrate=   1.4kbits/s speed=0.0939x elapsed=0:00:44.74    \nframe=  217 fps=4.8 q=48.0 size=       1KiB time=00:00:04.32 bitrate=   1.3kbits/s speed=0.0954x elapsed=0:00:45.29    \nframe=  219 fps=4.8 q=53.0 size=       1KiB time=00:00:04.32 bitrate=   1.3kbits/s speed=0.0942x elapsed=0:00:45.85    \nframe=  221 fps=4.8 q=51.0 size=       1KiB time=00:00:04.40 bitrate=   1.3kbits/s speed=0.0948x elapsed=0:00:46.40    \nframe=  225 fps=4.8 q=40.0 size=       1KiB time=00:00:04.48 bitrate=   1.3kbits/s speed=0.0953x elapsed=0:00:47.00    \nframe=  231 fps=4.9 q=55.0 size=       1KiB time=00:00:04.60 bitrate=   1.2kbits/s speed=0.0967x elapsed=0:00:47.55    \nframe=  233 fps=4.8 q=48.0 size=       1KiB time=00:00:04.64 bitrate=   1.2kbits/s speed=0.0963x elapsed=0:00:48.16    \nframe=  237 fps=4.9 q=55.0 size=       1KiB time=00:00:04.72 bitrate=   1.2kbits/s speed=0.0967x elapsed=0:00:48.79    \nframe=  245 fps=5.0 q=49.0 size=       1KiB time=00:00:04.84 bitrate=   1.2kbits/s speed=0.098x elapsed=0:00:49.40    \n[out#0/matroska @ 000001cc1834f0c0] video:1592KiB audio:0KiB subtitle:0KiB other streams:0KiB global headers:0KiB muxing overhead: 0.116799%\nframe=  250 fps=5.0 q=55.0 Lsize=    1594KiB time=00:00:04.98 bitrate=2621.8kbits/s speed=0.0998x elapsed=0:00:49.89    \n",
  "seconds": 50.88919520378113,
  "probe_out": {}
}